<svg width="208" height="40" viewBox="0 0 208 40" fill="none" xmlns="http://www.w3.org/2000/svg">
<rect width="40" height="40" fill="#F8F8F8"/>
<path opacity="0.7" d="M11.2872 24H13.2372L16.0212 20.028L18.8052 24H20.7552L16.9932 18.66L20.1552 14.1H18.2712L16.0212 17.352L13.7712 14.1H11.8872L15.0552 18.66L11.2872 24ZM24.7574 24.192C25.4334 24.192 26.0294 24.078 26.5454 23.85C27.0654 23.618 27.4714 23.284 27.7634 22.848C28.0594 22.408 28.2074 21.878 28.2074 21.258C28.2074 20.67 28.0754 20.192 27.8114 19.824C27.5514 19.452 27.1934 19.14 26.7374 18.888C26.2814 18.632 25.7614 18.388 25.1774 18.156C24.8814 18.04 24.6074 17.926 24.3554 17.814C24.1074 17.698 23.9094 17.556 23.7614 17.388C23.6134 17.216 23.5394 16.99 23.5394 16.71C23.5394 16.35 23.6734 16.034 23.9414 15.762C24.2094 15.486 24.5894 15.348 25.0814 15.348C25.5014 15.348 25.8914 15.44 26.2514 15.624C26.6114 15.804 26.9034 16.012 27.1274 16.248L27.8114 15.054C27.6234 14.858 27.3834 14.674 27.0914 14.502C26.8034 14.33 26.4834 14.19 26.1314 14.082C25.7834 13.974 25.4234 13.92 25.0514 13.92C24.4474 13.92 23.9174 14.052 23.4614 14.316C23.0054 14.58 22.6494 14.926 22.3934 15.354C22.1414 15.782 22.0154 16.244 22.0154 16.74C22.0154 17.196 22.1194 17.584 22.3274 17.904C22.5354 18.22 22.7994 18.486 23.1194 18.702C23.4434 18.914 23.7754 19.092 24.1154 19.236C24.5914 19.432 25.0094 19.618 25.3694 19.794C25.7294 19.966 26.0094 20.168 26.2094 20.4C26.4094 20.628 26.5094 20.926 26.5094 21.294C26.5094 21.77 26.3454 22.13 26.0174 22.374C25.6894 22.614 25.2834 22.734 24.7994 22.734C24.3434 22.734 23.9374 22.648 23.5814 22.476C23.2254 22.3 22.9214 22.1 22.6694 21.876C22.4174 21.652 22.2174 21.464 22.0694 21.312L21.2414 22.584C21.3454 22.704 21.4974 22.854 21.6974 23.034C21.8974 23.21 22.1434 23.388 22.4354 23.568C22.7314 23.744 23.0714 23.892 23.4554 24.012C23.8434 24.132 24.2774 24.192 24.7574 24.192Z" fill="#121212"/>
<rect x="57" y="1" width="38" height="38" fill="white" stroke="#121212" stroke-width="2"/>
<path d="M76.3883 24.192C77.0643 24.192 77.6603 24.078 78.1763 23.85C78.6963 23.618 79.1023 23.284 79.3943 22.848C79.6903 22.408 79.8383 21.878 79.8383 21.258C79.8383 20.67 79.7063 20.192 79.4423 19.824C79.1823 19.452 78.8243 19.14 78.3683 18.888C77.9123 18.632 77.3923 18.388 76.8083 18.156C76.5123 18.04 76.2383 17.926 75.9863 17.814C75.7383 17.698 75.5403 17.556 75.3923 17.388C75.2443 17.216 75.1703 16.99 75.1703 16.71C75.1703 16.35 75.3043 16.034 75.5723 15.762C75.8403 15.486 76.2203 15.348 76.7123 15.348C77.1323 15.348 77.5223 15.44 77.8823 15.624C78.2423 15.804 78.5343 16.012 78.7583 16.248L79.4423 15.054C79.2543 14.858 79.0143 14.674 78.7223 14.502C78.4343 14.33 78.1143 14.19 77.7623 14.082C77.4143 13.974 77.0543 13.92 76.6823 13.92C76.0783 13.92 75.5483 14.052 75.0923 14.316C74.6363 14.58 74.2803 14.926 74.0243 15.354C73.7723 15.782 73.6463 16.244 73.6463 16.74C73.6463 17.196 73.7503 17.584 73.9583 17.904C74.1663 18.22 74.4303 18.486 74.7503 18.702C75.0743 18.914 75.4063 19.092 75.7463 19.236C76.2223 19.432 76.6403 19.618 77.0003 19.794C77.3603 19.966 77.6403 20.168 77.8403 20.4C78.0403 20.628 78.1403 20.926 78.1403 21.294C78.1403 21.77 77.9763 22.13 77.6483 22.374C77.3203 22.614 76.9143 22.734 76.4303 22.734C75.9743 22.734 75.5683 22.648 75.2123 22.476C74.8563 22.3 74.5523 22.1 74.3003 21.876C74.0483 21.652 73.8483 21.464 73.7003 21.312L72.8723 22.584C72.9763 22.704 73.1283 22.854 73.3283 23.034C73.5283 23.21 73.7743 23.388 74.0663 23.568C74.3623 23.744 74.7023 23.892 75.0863 24.012C75.4743 24.132 75.9083 24.192 76.3883 24.192Z" fill="#121212"/>
<rect x="112" width="40" height="40" fill="#F8F8F8"/>
<path opacity="0.7" d="M126.345 24H127.917L128.703 16.944L131.169 23.628H132.171L134.631 16.944L135.423 24H136.989L135.897 14.1H134.229L131.667 20.85L129.105 14.1H127.437L126.345 24Z" fill="#121212"/>
<rect x="168" width="40" height="40" fill="#F8F8F8"/>
<path opacity="0.7" d="M185.854 24H191.206V22.62H187.426V14.1H185.854V24Z" fill="#121212"/>
</svg>
